# xmcd CD database file
#
# Track frame offsets:
#	183
#	32363
#	56590
#	97973
#	164575
#	204103
#	230138
#
# Disc length: 3603 seconds
#
# Revision: 0
# Processed by: cddbd v1.5.2PL0 Copyright (c) Steve Scherf et al.
# Submitted via: CDex 1.51
#
DISCID=510e1107
DTITLE=Gil Evans and Steve Lacy - Paris Blues
DYEAR=1900
DGENRE=Jazz
TTITLE0=Reincarnation of a Lovebird 
TTITLE1=Paris Blues
TTITLE2=Esteem
TTITLE3=Orange Was the Color of Her Dress, Then Blue Silk
TTITLE4=Goodbye Pork-Pie Hat
TTITLE5=Jelly Roll
TTITLE6=Esteem
EXTD=
EXTT0=
EXTT1=
EXTT2=
EXTT3=
EXTT4=
EXTT5=
EXTT6=
PLAYORDER=
